#define hovercursor_width 32
#define hovercursor_height 32
static char hovercursor_bits[] = {
0x0, 0x0, 0x0, 0x0, 0x0, 0x0, 0x0, 0x0, 0x7, 0xbf, 0xff, 0xe0, 
0x5, 0xed, 0x55, 0x40, 0x6, 0xc7, 0xff, 0xe0, 0x5, 0xe6, 0xaa, 
0xa0, 0x7, 0xf7, 0xff, 0xe0, 0x7, 0x13, 0xaa, 0xa0, 0x5, 0x9b, 
0xe0, 0x60, 0x7, 0x9a, 0x7f, 0xa0, 0x5, 0x89, 0x36, 0xe0, 0x6, 
0xc9, 0x93, 0x40, 0x7, 0xcc, 0x99, 0xe0, 0x5, 0xcc, 0xd9, 0xa0, 
0x6, 0xe4, 0x88, 0xe0, 0x7, 0xe6, 0x0, 0xc0, 0x4, 0x60, 0x0, 
0xe0, 0x6, 0x60, 0x0, 0x60, 0x7, 0x30, 0x0, 0x20, 0x7, 0x10, 
0x0, 0x20, 0x5, 0x98, 0x0, 0x60, 0x7, 0x90, 0x0, 0x20, 0x5, 
0xc0, 0x0, 0x20, 0x6, 0xe0, 0x0, 0x20, 0x7, 0xf0, 0x0, 0x60, 
0x5, 0x78, 0x0, 0xe0, 0x7, 0xbc, 0x0, 0xc0, 0x5, 0x6e, 0x1, 
0x60, 0x7, 0xf7, 0x55, 0xe0, 0x5, 0x5d, 0xff, 0xa0, 0x0, 0x0, 
0x0, 0x0, 0x0, 0x0, 0x0, 0x0, };
